HIERARCHY
ROOT Hips
{
	OFFSET 0.000000 0.000000 0.000000 
	CHANNELS 6 Xposition Yposition Zposition Zrotation Yrotation Xrotation
	JOINT LeftUpLeg
	{
		OFFSET 1.363060 -1.794630 0.839290 
		CHANNELS 3 Zrotation Yrotation Xrotation
		JOINT LeftLeg
		{
			OFFSET 2.448110 -6.726130 0.000000 
			CHANNELS 3 Zrotation Yrotation Xrotation
			JOINT LeftFoot
			{
				OFFSET 2.562200 -7.039590 0.000000 
				CHANNELS 3 Zrotation Yrotation Xrotation
				JOINT LeftToeBase
				{
					OFFSET 0.157640 -0.433110 2.322550 
					CHANNELS 3 Zrotation Yrotation Xrotation
					End Site
					{
						OFFSET 0.000000 0.000000 0.000000 
					}
				}
			}
		}
	}
	JOINT RightUpLeg
	{
		OFFSET -1.305520 -1.794630 0.839290 
		CHANNELS 3 Zrotation Yrotation Xrotation
		JOINT RightLeg
		{
			OFFSET -2.542530 -6.985550 0.000000 
			CHANNELS 3 Zrotation Yrotation Xrotation
			JOINT RightFoot
			{
				OFFSET -2.568260 -7.056230 0.000000 
				CHANNELS 3 Zrotation Yrotation Xrotation
				JOINT RightToeBase
				{
					OFFSET -0.164730 -0.452590 2.363150 
					CHANNELS 3 Zrotation Yrotation Xrotation
					End Site
					{
						OFFSET 0.000000 0.000000 0.000000 
					}
				}
			}
		}
	}
	JOINT Spine
	{
		OFFSET 0.028270 2.035590 -0.193380 
		CHANNELS 3 Zrotation Yrotation Xrotation
		JOINT Spine1
		{
			OFFSET 0.056720 2.048850 -0.042750 
			CHANNELS 3 Zrotation Yrotation Xrotation
			JOINT Neck1
			{
				OFFSET -0.054170 1.746240 0.172020 
				CHANNELS 3 Zrotation Yrotation Xrotation
				JOINT Head
				{
					OFFSET 0.104070 1.761360 -0.123970 
					CHANNELS 3 Zrotation Yrotation Xrotation
					End Site
					{
						OFFSET 0.000000 0.000000 0.000000 
					}
				}
			}
			JOINT LeftArm
			{
				OFFSET 3.362410 1.200890 -0.311210 
				CHANNELS 3 Zrotation Yrotation Xrotation
				JOINT LeftForeArm
				{
					OFFSET 4.983000 -0.000000 -0.000000 
					CHANNELS 3 Zrotation Yrotation Xrotation
					JOINT LeftHand
					{
						OFFSET 3.483560 -0.000000 -0.000000 
						CHANNELS 3 Zrotation Yrotation Xrotation
						JOINT LeftHandIndex1
						{
							OFFSET 0.715260 -0.000000 -0.000000 
							CHANNELS 3 Zrotation Yrotation Xrotation
							End Site
							{
								OFFSET 0.000000 0.000000 0.000000 
							}
						}
					}
				}
			}
			JOINT RightArm
			{
				OFFSET -3.136600 1.374050 -0.404650 
				CHANNELS 3 Zrotation Yrotation Xrotation
				JOINT RightForeArm
				{
					OFFSET -5.241900 -0.000000 -0.000000 
					CHANNELS 3 Zrotation Yrotation Xrotation
					JOINT RightHand
					{
						OFFSET -3.444170 -0.000000 -0.000000 
						CHANNELS 3 Zrotation Yrotation Xrotation
						JOINT RightHandIndex1
						{
							OFFSET -0.622530 -0.000000 -0.000000 
							CHANNELS 3 Zrotation Yrotation Xrotation
							End Site
							{
								OFFSET 0.000000 0.000000 0.000000 
							}
						}
					}
				}
			}
		}
	}
}
MOTION
Frames: 17
Frame Time: 0.041667
15.523911 17.817105 -12.587594 65.501354 -85.803249 -63.064144 -3.108039 -8.427788 -6.743834 -0.977813 5.961350 16.863144 0.384834 0.581789 7.662276 3.845900 -11.952400 -35.563800 -0.051787 10.539550 -0.047344 -1.014630 -8.475434 23.972507 0.498787 -4.182473 -0.654314 -1.096200 6.653400 -18.692400 0.844645 3.747568 -0.104191 -2.399479 1.867667 -5.228951 3.739460 3.060846 18.109096 3.934500 0.392800 13.939900 -82.369720 2.313021 5.943773 13.055378 -18.743680 -2.579222 -1.844653 -1.720450 6.414281 -7.125000 0.000000 0.000000 75.753909 -3.579863 5.473727 -17.958620 26.707822 -4.760638 0.482688 -0.097867 4.124202 7.125000 0.000000 0.000000 
15.512181 17.825802 -12.427926 67.638750 -85.357763 -65.200297 -4.321555 -7.879572 -6.702460 -1.003399 5.956950 16.898006 0.248145 1.001747 6.853100 3.613300 -11.627300 -34.425800 -1.037646 10.834042 0.009773 -1.062473 -8.543932 24.109262 0.566619 -4.475815 0.084580 -0.898900 6.042600 -16.908200 0.806941 3.716242 -0.117279 -2.278683 1.860193 -5.256876 3.881727 3.120494 18.335149 4.060100 0.392100 14.057200 -82.536275 2.232188 6.262663 12.974136 -18.597827 -2.544953 -1.867158 -1.594351 6.278933 -7.125000 0.000000 0.000000 75.656902 -3.686376 4.540934 -17.891671 26.629676 -4.727868 0.476460 -0.103090 4.419659 7.125000 0.000000 0.000000 
15.500249 17.834902 -12.270786 67.952342 -85.189105 -65.560252 -5.221976 -7.247600 -6.797251 -0.998171 6.003918 17.062981 0.139224 1.344729 6.075089 3.276700 -11.130100 -32.719900 -1.644433 11.281480 0.218401 -1.096951 -8.601535 24.231856 0.617329 -4.702014 0.641715 -0.566500 4.820500 -13.397300 0.766052 3.711965 -0.088551 -2.426298 1.866726 -5.157445 3.574728 3.167819 18.578733 3.879400 0.387900 14.249100 -82.597779 1.988813 6.669925 13.027217 -18.654883 -2.560645 -1.892856 -1.694676 6.264515 -7.125000 0.000000 0.000000 75.784983 -3.689498 3.707993 -17.860489 26.594261 -4.712140 0.476566 -0.103193 4.468889 7.125000 0.000000 0.000000 
15.495091 17.850171 -12.117690 64.890451 -85.345289 -62.448584 -5.651845 -6.765735 -6.993986 -1.007395 6.000468 17.034458 -0.004065 1.946495 5.610533 3.329100 -11.209600 -32.990000 -1.680860 11.755787 0.314376 -1.134865 -8.671043 24.419263 0.836508 -5.550599 1.153467 -0.393900 4.030000 -11.161200 0.810715 3.653744 -0.107011 -2.592234 1.838533 -5.154065 3.357672 3.196514 18.586422 3.757200 0.386500 14.266300 -82.726074 1.904115 7.382125 13.357048 -19.130760 -2.693650 -1.911555 -2.084105 6.540560 -7.125000 0.000000 0.000000 75.884776 -3.685520 2.965372 -17.811606 26.530611 -4.684868 0.487606 -0.103796 4.447371 7.125000 0.000000 0.000000 
15.489934 17.867160 -11.970561 62.460212 -85.328920 -59.958074 -6.243894 -6.646964 -6.952216 -1.043861 5.954733 16.878304 -0.223488 2.880989 5.165277 3.517800 -11.489500 -33.948900 -1.810454 12.223565 0.331699 -1.198558 -8.780579 24.702544 1.169405 -6.839755 1.698646 -0.354900 3.827200 -10.591100 0.839814 3.566327 -0.142147 -2.643347 1.798689 -5.195495 3.200833 3.236927 18.572378 3.677700 0.388700 14.248600 -82.769057 1.900598 7.728041 13.454656 -19.264863 -2.736704 -1.906319 -2.102071 6.649030 -7.125000 0.000000 0.000000 76.035240 -3.778498 2.140465 -17.825535 26.548105 -4.689642 0.493810 -0.107056 4.517001 7.125000 0.000000 0.000000 
15.476991 17.875957 -11.824443 63.974508 -84.943261 -61.536559 -7.338594 -6.773254 -6.503290 -1.104242 5.865334 16.644095 -0.441632 3.755032 4.568756 3.296000 -11.159400 -32.819400 -2.485588 12.662248 0.390013 -1.292289 -8.941550 25.096761 1.415119 -7.820601 2.146536 -0.269300 3.338200 -9.221600 0.787412 3.539013 -0.122159 -2.567603 1.797091 -5.155940 3.038976 3.246664 18.657536 3.577000 0.381500 14.308400 -82.795192 1.852797 8.220838 13.542773 -19.388337 -2.776804 -1.916764 -2.126354 6.514356 -7.125000 0.000000 0.000000 76.213020 -3.860636 1.341835 -17.845061 26.571079 -4.697257 0.494696 -0.099619 4.292702 7.125000 0.000000 0.000000 
15.468699 17.889912 -11.677617 64.044716 -84.568573 -61.635125 -8.297023 -6.920536 -6.102451 -1.172824 5.739081 16.304183 -0.587879 4.348885 4.167239 2.975800 -10.655800 -31.127800 -3.035549 12.901050 0.354377 -1.401926 -9.115416 25.552287 1.685009 -8.887090 2.543446 -0.203600 2.905400 -8.015400 0.777390 3.420647 -0.098936 -2.412970 1.747132 -5.095626 3.003694 3.346549 18.716321 3.585300 0.407500 14.343700 -82.910786 1.711264 8.406224 13.613513 -19.479336 -2.806613 -1.924976 -2.162201 6.678727 -7.125000 0.000000 0.000000 76.256906 -3.884933 0.821422 -17.834116 26.554859 -4.689904 0.494458 -0.092070 4.017868 7.125000 0.000000 0.000000 
15.463845 17.909933 -11.532712 62.077485 -84.396111 -59.597925 -8.895324 -6.626646 -6.073518 -1.232338 5.590037 15.905182 -0.590730 4.343101 3.986248 2.939800 -10.597000 -30.932300 -3.228290 13.165122 0.262663 -1.512384 -9.280760 25.997357 2.045699 -10.296444 3.011845 -0.125300 2.282300 -6.286500 0.810038 3.242129 -0.105409 -2.317512 1.661966 -5.041463 3.106597 3.475881 18.794737 3.693300 0.445600 14.378800 -83.007966 1.614005 8.586088 13.693384 -19.582470 -2.841660 -1.907715 -2.169547 6.821896 -7.125000 0.000000 0.000000 76.353949 -3.855158 0.147847 -17.787244 26.498229 -4.666600 0.489340 -0.099141 4.256358 7.125000 0.000000 0.000000 
15.460104 17.924596 -11.393774 59.999867 -84.349914 -57.449106 -9.296482 -6.317301 -6.083298 -1.284191 5.444850 15.519690 -0.543040 4.114074 3.822924 2.955200 -10.622200 -31.016200 -3.216761 13.661140 0.238234 -1.618913 -9.445674 26.421142 2.497690 -12.021443 3.297287 -0.043300 1.343700 -3.695100 0.838805 3.130634 -0.099782 -2.323250 1.610236 -4.960166 2.959291 3.538858 18.719223 3.614400 0.469200 14.346300 -82.999608 1.470416 8.988241 13.783198 -19.698105 -2.885352 -1.824148 -2.170954 6.761198 -7.125000 0.000000 0.000000 76.532293 -3.800068 -0.550501 -17.758891 26.466100 -4.653521 0.480992 -0.101332 4.492127 7.125000 0.000000 0.000000 
15.454644 17.941280 -11.258880 59.088360 -84.239535 -56.544923 -9.778929 -6.371986 -5.805122 -1.340550 5.299534 15.134294 -0.539103 4.073904 3.628939 2.699800 -10.192500 -29.602400 -3.252163 14.206516 0.259336 -1.735781 -9.626731 26.872953 2.977181 -13.835382 3.460604 -0.000500 0.142700 -0.392000 0.839542 3.118790 -0.072012 -2.335445 1.609047 -4.882878 2.690761 3.541291 18.620478 3.450900 0.464300 14.306800 -82.898248 1.284392 9.687971 13.850301 -19.783776 -2.920808 -1.774934 -2.157851 6.584470 -7.125000 0.000000 0.000000 76.647721 -3.846302 -0.802910 -17.762822 26.469577 -4.654037 0.486275 -0.091068 4.158034 7.125000 0.000000 0.000000 
15.449689 17.959381 -11.130761 58.268484 -84.178251 -55.753522 -10.172615 -6.373613 -5.513504 -1.395518 5.138182 14.709574 -0.508548 3.923265 3.539212 2.527600 -9.888000 -28.614600 -3.160381 14.759836 0.267307 -1.873215 -9.833241 27.397035 3.491472 -15.798256 3.688705 -0.030600 -1.128600 3.102800 0.857114 3.144571 -0.045309 -2.292625 1.621750 -4.825194 2.646256 3.515570 18.721092 3.443200 0.433900 14.392600 -82.767803 1.141146 10.703161 13.939388 -19.907933 -2.965484 -1.805251 -2.171890 6.118571 -7.125000 0.000000 0.000000 76.776639 -3.930753 -1.026589 -17.759868 26.459873 -4.647260 0.508263 -0.092467 3.927731 7.125000 0.000000 0.000000 
15.447970 17.971010 -11.010530 56.936057 -84.197480 -54.392304 -10.402285 -6.073333 -5.449541 -1.445704 4.957502 14.238401 -0.425381 3.545004 3.586320 2.511900 -9.859600 -28.523200 -2.934129 15.196891 0.089188 -2.035676 -10.069596 28.049167 3.986910 -17.657025 3.751328 -0.160400 -2.580100 7.111900 0.942933 3.140161 -0.028479 -2.095197 1.618233 -4.759824 2.557935 3.605478 18.896316 3.435700 0.434500 14.513100 -82.787489 1.070366 11.621407 14.075933 -20.101122 -3.031704 -1.843186 -2.178599 5.468170 -7.125000 0.000000 0.000000 76.742077 -4.014216 -1.137522 -17.777380 26.481048 -4.653491 0.515873 -0.094991 3.762304 7.125000 0.000000 0.000000 
15.448880 17.980818 -10.891411 56.337013 -84.160688 -53.782990 -10.706534 -5.687735 -5.370893 -1.493198 4.764916 13.755651 -0.299254 2.945355 3.572969 2.470300 -9.783700 -28.279100 -2.805264 15.488717 -0.234503 -2.220692 -10.341785 28.867181 4.372088 -19.020261 3.432079 -0.419600 -4.157800 11.521000 1.035471 3.105461 -0.028727 -1.789077 1.596978 -4.795693 2.635104 3.703665 18.919055 3.523700 0.456500 14.504000 -82.937636 1.028506 12.141349 14.267120 -20.365602 -3.121554 -1.855510 -2.181923 5.093829 -7.125000 0.000000 0.000000 76.608371 -4.148961 -0.983324 -17.775058 26.477244 -4.652517 0.508460 -0.091337 3.475977 7.125000 0.000000 0.000000 
15.451104 17.991537 -10.779774 56.022956 -84.090767 -53.508663 -11.052898 -5.296274 -5.307831 -1.520363 4.629499 13.440637 -0.157246 2.242828 3.490006 2.550700 -9.929500 -28.748700 -2.675150 15.625954 -0.596362 -2.407612 -10.621268 29.774327 4.630317 -19.828942 2.735476 -0.738500 -5.489800 15.311000 1.085117 3.039879 -0.038285 -1.527321 1.564084 -4.917235 2.600945 3.718407 18.735817 3.497800 0.470900 14.358500 -82.986754 1.027256 12.429263 14.476496 -20.661783 -3.223248 -1.831795 -2.179845 5.128112 -7.125000 0.000000 0.000000 76.658458 -4.266579 -0.804251 -17.740529 26.429382 -4.635578 0.496980 -0.100086 3.488891 7.125000 0.000000 0.000000 
15.452925 17.996290 -10.676127 55.937318 -83.944306 -53.476460 -11.484900 -4.703099 -5.388783 -1.524805 4.554689 13.302057 0.004701 1.414737 3.363011 2.725400 -10.236700 -29.746600 -2.589165 15.645513 -0.986241 -2.582422 -10.892413 30.718127 4.770971 -20.108290 1.537455 -1.248200 -7.083600 19.963200 1.069772 3.019267 -0.013953 -1.390662 1.560068 -4.915527 2.347115 3.669193 18.627156 3.311200 0.458400 14.291200 -82.769441 0.955541 13.032462 14.688412 -20.972316 -3.334679 -1.751998 -2.192631 5.163801 -7.125000 0.000000 0.000000 76.935764 -4.291137 -0.945217 -17.729997 26.417008 -4.632213 0.482135 -0.112281 3.816125 7.125000 0.000000 0.000000 
15.457374 18.000941 -10.573389 54.697818 -83.889802 -52.237088 -11.714625 -3.983598 -5.696335 -1.510592 4.526052 13.284917 0.216051 0.338459 3.378779 2.698600 -10.190300 -29.595200 -2.337920 15.394479 -1.535639 -2.749200 -11.140078 31.659506 4.691169 -19.664266 0.591670 -1.798500 -8.433200 24.037800 1.091462 2.976941 -0.011083 -1.252115 1.542388 -4.925467 2.168324 3.707963 18.617332 3.198000 0.471600 14.276400 -82.489304 0.946864 13.986235 14.930777 -21.331834 -3.464632 -1.693043 -2.223630 4.698889 -7.125000 0.000000 0.000000 77.114632 -4.311746 -0.858850 -17.690936 26.365202 -4.613665 0.473912 -0.118084 4.123157 7.125000 0.000000 0.000000 
15.460610 18.013480 -10.477123 53.780694 -83.772760 -51.230919 -11.980905 -3.674531 -5.921174 -1.506329 4.505497 13.273685 0.364170 -0.446733 3.461190 2.499200 -9.836500 -28.449000 -2.146456 15.095354 -2.228291 -2.926790 -11.387264 32.617965 4.538556 -19.012485 -0.155514 -2.074700 -9.019900 25.857700 1.119890 2.918518 -0.046999 -0.988902 1.515271 -4.998576 2.303902 3.735201 18.733198 3.272500 0.487800 14.330600 -82.259665 1.023067 14.870813 15.204691 -21.737651 -3.610105 -1.682840 -2.255361 4.168211 -7.125000 0.000000 0.000000 77.208140 -4.432791 -0.662319 -17.696526 26.368867 -4.616573 0.467775 -0.119958 4.571841 7.125000 0.000000 0.000000 
